<svg xmlns="http://www.w3.org/2000/svg" viewBox="0 0 630 430" class="svg-logo" width="315" height="215" style="height: auto;"><rect rx="10" ry="10" width="100%" height="100%" fill="rgba(40, 66, 230, 1.0)"/><g data-element="wrapper" transform="translate(31.464843749997243 -17.625000000002274) scale(1.0000000000000098)"><g><g data-element="icon" transform="scale(0.1749271565028315) translate(724.0617505460978 933.3706715253647)"><path id="color_x5F_1_40_" fill="rgba(242, 92, 147, 1.0)" d="M513.354,210.764c-22.229-17.723-40.249-7.994-45.776-1.51l-39.832,46.702V85.5H71.046    v429h356.699V366.346l94.34-110.622C530.264,246.131,533.307,226.672,513.354,210.764z M328.042,406.607l21.181,18.055    l-23.868,6.543L328.042,406.607z M360.489,419.853l-29.477-25.127l114.461-134.204l29.473,25.122L360.489,419.853z M452.592,252.177    l4.695-5.506l29.471,25.121l-4.695,5.506L452.592,252.177z M411.292,498.047H87.499V101.953h323.793v173.294L313.289,390.15    l-6.92,63.319l61.438-16.843l43.484-50.989V498.047z M509.566,245.048l-15.69,18.398l-29.472-25.12l15.691-18.398    c3.16-3.707,11.41-5.723,22.584,3.355C513.551,232.116,513.141,240.855,509.566,245.048z M355.33,216.102H144.069v-10.968H355.33    V216.102z M355.33,282.089H144.069V271.12H355.33V282.089z M144.069,337.106h125.866v10.968H144.069V337.106z"/></g><text transform="translate(233.08593750000009 236)" fill="rgba(242, 92, 147, 1.0)" font-family="Nunito" font-size="60" data-element="company-name" dx="0 0 0 0 0 0 0 0">MyToTool</text><text transform="translate(72.53125000000003 285.25)" fill="rgba(242, 92, 147, 1.0)" font-family="Ubuntu" font-size="28.785480416604326" data-element="slogan" dx="0 0.25 0.25 0.25 0.25 0.25 0.25 0.25 0.25 0.25 0.25 0.25 0.25 0.25 0.25 0.25 0.25 0.25 0.25 0.25 0.25 0.25 0.25 0.25 0.25 0.25 0.25 0.25 0.25 0.25">Là où la productivité commence</text></g></g></svg>